<svg xmlns="http://www.w3.org/2000/svg" width="960" height="540" viewBox="0 0 960 540" font-family="'DejaVu Sans','Segoe UI',Helvetica,Arial,sans-serif">
<rect width="960" height="540" fill="#fdfdfd"/>
<text x="480" y="34" text-anchor="middle" font-size="21" font-weight="bold" fill="#1a1a1a">Optimizer Refinement: GPT 5.6 Sol</text>
<text x="480" y="60" text-anchor="middle" font-size="12" fill="#6b6b6b">Staircase = best score so far &#183; dots = every graded iteration &#183; dots on the axis = zero score iterations</text>
<g stroke="#dcdcdc" stroke-width="1" stroke-dasharray="5 5">
<line x1="72" y1="361" x2="928" y2="361"/>
<line x1="72" y1="270" x2="928" y2="270"/>
<line x1="72" y1="179" x2="928" y2="179"/>
<line x1="112" y1="88" x2="112" y2="452"/>
<line x1="198.62" y1="88" x2="198.62" y2="452"/>
<line x1="306.9" y1="88" x2="306.9" y2="452"/>
<line x1="415.17" y1="88" x2="415.17" y2="452"/>
<line x1="523.45" y1="88" x2="523.45" y2="452"/>
<line x1="631.72" y1="88" x2="631.72" y2="452"/>
<line x1="740" y1="88" x2="740" y2="452"/>
</g>
<rect x="72" y="88" width="856" height="364" fill="none" stroke="#cfcfcf" stroke-width="1"/>
<g font-size="12" fill="#3d3d3d">
<text x="62" y="456" text-anchor="end">0</text>
<text x="62" y="365" text-anchor="end">25</text>
<text x="62" y="274" text-anchor="end">50</text>
<text x="62" y="183" text-anchor="end">75</text>
<text x="62" y="92" text-anchor="end">100</text>
<text x="112" y="472" text-anchor="middle">1</text>
<text x="198.62" y="472" text-anchor="middle">5</text>
<text x="306.9" y="472" text-anchor="middle">10</text>
<text x="415.17" y="472" text-anchor="middle">15</text>
<text x="523.45" y="472" text-anchor="middle">20</text>
<text x="631.72" y="472" text-anchor="middle">25</text>
<text x="740" y="472" text-anchor="middle">30</text>
</g>
<text x="500" y="501" text-anchor="middle" font-size="13" fill="#1a1a1a">Iteration</text>
<text x="26" y="270" text-anchor="middle" font-size="13" fill="#1a1a1a" transform="rotate(-90 26 270)">Score (%)</text>
<path d="M 112 348.91 L 133.66 348.91 L 133.66 336.22 L 155.31 336.22 L 155.31 336.13 L 176.97 336.13 L 176.97 336.04 L 198.62 336.04 L 198.62 331.46 L 220.28 331.46 L 220.28 324.94 L 241.93 324.94 L 241.93 321.03 L 263.59 321.03 L 263.59 308.91 L 285.24 308.91 L 285.24 308.88 L 306.9 308.88 L 306.9 308.54 L 328.55 308.54 L 328.55 308.54 L 350.21 308.54 L 350.21 308.54 L 371.86 308.54 L 371.86 308.54 L 393.52 308.54 L 393.52 308.54 L 415.17 308.54 L 415.17 308.54 L 436.83 308.54 L 436.83 308.54 L 458.48 308.54 L 458.48 308.54 L 480.14 308.54 L 480.14 245.92 L 501.79 245.92 L 501.79 245.92 L 523.45 245.92 L 523.45 245.92 L 545.1 245.92 L 545.1 245.92 L 566.76 245.92 L 566.76 232.48 L 588.41 232.48 L 588.41 232.48 L 610.07 232.48 L 610.07 222.4 L 631.72 222.4 L 631.72 222.4 L 653.38 222.4 L 653.38 222.4 L 675.03 222.4 L 675.03 215.68 L 696.69 215.68 L 696.69 215.68 L 718.34 215.68 L 718.34 215.68 L 740 215.68 L 740 215.68" fill="none" stroke="#209384" stroke-width="2.8" stroke-linejoin="round" stroke-linecap="butt"/>
<g>
<circle cx="328.55" cy="309.02" r="4.6" fill="#209384" fill-opacity="0.4" stroke="#fdfdfd" stroke-width="1.3"/>
<circle cx="350.21" cy="310.16" r="4.6" fill="#209384" fill-opacity="0.4" stroke="#fdfdfd" stroke-width="1.3"/>
<circle cx="371.86" cy="312.96" r="4.6" fill="#209384" fill-opacity="0.4" stroke="#fdfdfd" stroke-width="1.3"/>
<circle cx="393.52" cy="309.03" r="4.6" fill="#209384" fill-opacity="0.4" stroke="#fdfdfd" stroke-width="1.3"/>
<circle cx="415.17" cy="312.79" r="4.6" fill="#209384" fill-opacity="0.4" stroke="#fdfdfd" stroke-width="1.3"/>
<circle cx="436.83" cy="308.97" r="4.6" fill="#209384" fill-opacity="0.4" stroke="#fdfdfd" stroke-width="1.3"/>
<circle cx="458.48" cy="312.08" r="4.6" fill="#209384" fill-opacity="0.4" stroke="#fdfdfd" stroke-width="1.3"/>
<circle cx="523.45" cy="272.8" r="4.6" fill="#209384" fill-opacity="0.4" stroke="#fdfdfd" stroke-width="1.3"/>
<circle cx="588.41" cy="276.16" r="4.6" fill="#209384" fill-opacity="0.4" stroke="#fdfdfd" stroke-width="1.3"/>
<circle cx="631.72" cy="235.84" r="4.6" fill="#209384" fill-opacity="0.4" stroke="#fdfdfd" stroke-width="1.3"/>
<circle cx="653.38" cy="235.84" r="4.6" fill="#209384" fill-opacity="0.4" stroke="#fdfdfd" stroke-width="1.3"/>
<circle cx="696.69" cy="239.2" r="4.6" fill="#209384" fill-opacity="0.4" stroke="#fdfdfd" stroke-width="1.3"/>
<circle cx="718.34" cy="266.08" r="4.6" fill="#209384" fill-opacity="0.4" stroke="#fdfdfd" stroke-width="1.3"/>
<circle cx="740" cy="222.4" r="4.6" fill="#209384" fill-opacity="0.4" stroke="#fdfdfd" stroke-width="1.3"/>
</g>
<circle cx="112" cy="348.91" r="4.6" fill="#209384" stroke="#fdfdfd" stroke-width="1.3"/>
<circle cx="133.66" cy="336.22" r="4.6" fill="#209384" stroke="#fdfdfd" stroke-width="1.3"/>
<circle cx="155.31" cy="336.13" r="4.6" fill="#209384" stroke="#fdfdfd" stroke-width="1.3"/>
<circle cx="176.97" cy="336.04" r="4.6" fill="#209384" stroke="#fdfdfd" stroke-width="1.3"/>
<circle cx="198.62" cy="331.46" r="4.6" fill="#209384" stroke="#fdfdfd" stroke-width="1.3"/>
<circle cx="220.28" cy="324.94" r="4.6" fill="#209384" stroke="#fdfdfd" stroke-width="1.3"/>
<circle cx="241.93" cy="321.03" r="4.6" fill="#209384" stroke="#fdfdfd" stroke-width="1.3"/>
<circle cx="263.59" cy="308.91" r="4.6" fill="#209384" stroke="#fdfdfd" stroke-width="1.3"/>
<circle cx="285.24" cy="308.88" r="4.6" fill="#209384" stroke="#fdfdfd" stroke-width="1.3"/>
<circle cx="306.9" cy="308.54" r="4.6" fill="#209384" stroke="#fdfdfd" stroke-width="1.3"/>
<circle cx="480.14" cy="245.92" r="4.6" fill="#209384" stroke="#fdfdfd" stroke-width="1.3"/>
<circle cx="501.79" cy="245.92" r="4.6" fill="#209384" stroke="#fdfdfd" stroke-width="1.3"/>
<circle cx="545.1" cy="245.92" r="4.6" fill="#209384" stroke="#fdfdfd" stroke-width="1.3"/>
<circle cx="566.76" cy="232.48" r="4.6" fill="#209384" stroke="#fdfdfd" stroke-width="1.3"/>
<circle cx="610.07" cy="222.4" r="4.6" fill="#209384" stroke="#fdfdfd" stroke-width="1.3"/>
<circle cx="675.03" cy="215.68" r="4.6" fill="#209384" stroke="#fdfdfd" stroke-width="1.3"/>
<rect x="752" y="199.28" width="142" height="22" rx="4" fill="#fdfdfd" stroke="#209384" stroke-width="1.5"/>
<text x="761" y="214.28" font-family="'DejaVu Sans Mono',Menlo,Consolas,monospace" font-size="11" fill="#209384">GPT 5.6 Sol &#8211; 64.9%</text>
<rect x="744" y="406" width="182" height="46" fill="#fdfdfd"/>
<line x1="752" y1="414" x2="774" y2="414" stroke="#209384" stroke-width="2.8" stroke-linecap="butt"/>
<circle cx="763" cy="428" r="4.6" fill="#209384" fill-opacity="1" stroke="#fdfdfd" stroke-width="1.3"/>
<circle cx="763" cy="442" r="4.6" fill="#209384" fill-opacity="0.4" stroke="#fdfdfd" stroke-width="1.3"/>
<g font-size="10" fill="#3d3d3d">
<text x="782" y="418">GPT 5.6 Sol</text>
<text x="782" y="432">at the running best</text>
<text x="782" y="446">below the running best</text>
</g>
</svg>
